<svg xmlns="http://www.w3.org/2000/svg" viewBox="0 0 512 512"><g id="E-learning_on_ipad"><path d="M276.3033,185.1124a4.98,4.98,0,0,0,3.189-1.1514c.207-.1719,21.11-17.022,60.1367-6.7617a5,5,0,0,0,2.542-9.6719c-43.937-11.5474-68.0576,7.9033-69.0625,8.7363a5,5,0,0,0,3.1948,8.8487Z"/><path d="M276.3033,212.671a4.98,4.98,0,0,0,3.189-1.1514c.207-.1719,21.11-17.022,60.1367-6.7617a5,5,0,0,0,2.542-9.6719c-43.937-11.5469-68.0576,7.9028-69.0625,8.7363a5,5,0,0,0,3.1948,8.8487Z"/><path d="M342.171,222.6446c-43.937-11.5483-68.0576,7.9028-69.0625,8.7363a5,5,0,0,0,6.3638,7.7139c.8584-.6968,21.4687-16.9507,60.1567-6.7783a5,5,0,0,0,2.542-9.6719Z"/><path d="M140.0768,167.5274a5,5,0,0,0,2.5419,9.6719c38.6456-10.16,59.2525,6.0459,60.1539,6.7759a5,5,0,0,0,6.3667-7.7115C208.1349,175.4307,184.0133,155.9786,140.0768,167.5274Z"/><path d="M140.0768,195.086a5,5,0,0,0,2.5419,9.6719c38.6456-10.16,59.2525,6.0459,60.1539,6.7759a5,5,0,0,0,6.3667-7.7115C208.1349,202.9888,184.0133,183.5362,140.0768,195.086Z"/><path d="M140.0768,222.6446a5,5,0,0,0,2.5419,9.6719c38.6265-10.1553,59.2325,6.03,60.1524,6.7749a5,5,0,0,0,6.3682-7.71C208.1334,230.5474,184.0133,211.0938,140.0768,222.6446Z"/><path d="M217.3717,34.79h23.226a5,5,0,0,0,0-10h-23.226a5,5,0,0,0,0,10Z"/><path d="M256.524,34.79h9.29a5,5,0,0,0,0-10h-9.29a5,5,0,0,0,0,10Z"/><path d="M414.4051,365.52a18.8007,18.8007,0,0,0-13.85,6.11,18.84,18.84,0,0,0-12.92-6.08V296.58a18.3188,18.3188,0,0,0,16.9-18.28V119.53a18.3924,18.3924,0,0,0-16-18.19c-.29-.04-.59-.08-.9-.11V23.7a15.5454,15.5454,0,0,0-15.53-15.53h-261.02A15.5454,15.5454,0,0,0,95.555,23.7v77.54c-.28.03-.54.07-.81.1a18.3928,18.3928,0,0,0-16.01,18.19V278.3a18.3512,18.3512,0,0,0,16.82,18.28V383.1a15.5518,15.5518,0,0,0,15.53,15.53h202.73v21.39l-8.36-4.62a19.3077,19.3077,0,0,0-26.55,8.12,19.3553,19.3553,0,0,0,6.31,24.74l26.21,17.89a21.1885,21.1885,0,0,1,8.83,13.4v.02a21.1949,21.1949,0,0,1,.4,4.07v15.19a5,5,0,0,0,10,0V483.55h11.73a5,5,0,0,0,0-10h-13.42a31.1336,31.1336,0,0,0-11.9-15.65l-26.21-17.9a9.3188,9.3188,0,0,1,2.53-16.61,9.2256,9.2256,0,0,1,7.23.76l15.78,8.72a5.0012,5.0012,0,0,0,7.42-4.38V329.98a8.1551,8.1551,0,0,1,16.31,0v84.35a5,5,0,0,0,10,0V384.38a8.855,8.855,0,1,1,17.71,0v29.95a5,5,0,0,0,10,0V384.38a8.87,8.87,0,0,1,8.86-8.86c.32,0,.63.02.94.05a8.8743,8.8743,0,0,1,7.92,8.81v29.95a5,5,0,0,0,10,0V384.38a8.855,8.855,0,1,1,17.71,0v42.8a43.5055,43.5055,0,0,1-15.26,33.12,35.4459,35.4459,0,0,0-12.45,27.01v11.52a5,5,0,0,0,10,0V487.31a25.5086,25.5086,0,0,1,8.94-19.41,53.4759,53.4759,0,0,0,18.77-40.72v-42.8A18.8806,18.8806,0,0,0,414.4051,365.52Zm-172.77-96.84a5.0018,5.0018,0,0,0-5,5v16.3c-.22-.16-.44-.34-.65-.52-13.33-11.59-42.5-29.37-95.97-29.37-7.4,0-15.28.34-23.63,1.09a2.7471,2.7471,0,0,1-2.11-.71,2.68,2.68,0,0,1-.88-2V96.04a2.7083,2.7083,0,0,1,2.25-2.68c19.06-3.23,83.44-11.03,111.36,23.96a18.7553,18.7553,0,0,0,9.63,6.4V256.77a5,5,0,0,0,10,0V123.72a18.74,18.74,0,0,0,9.64-6.4,55.5307,55.5307,0,0,1,8.62-8.65v31.28a9.3541,9.3541,0,0,0,17.14,5.18l5.42-8.16,5.43,8.16a9.3541,9.3541,0,0,0,17.14-5.18v-22.5a5,5,0,1,0-10,0v20.36l-8.4-12.64a5.0046,5.0046,0,0,0-8.33,0l-8.4,12.64V94.94a21.5729,21.5729,0,0,1,.43-4.28v-.01a21.2676,21.2676,0,0,1,20.8-16.94h20.95a1.7413,1.7413,0,0,1,1.74,1.74v5.24c-1.86.12-3.74.27-5.62.46-.97.1-1.93.2-2.89.32-1.57.18-3.13.39-4.66.62a6.242,6.242,0,0,0-5.34,6.17v12.86a5,5,0,0,0,10,0V91.56a168.5185,168.5185,0,0,1,21.08-1.26,224.0243,224.0243,0,0,1,36.25,3.06,2.7084,2.7084,0,0,1,2.25,2.68V258.47a2.6794,2.6794,0,0,1-.88,2,2.78,2.78,0,0,1-2.11.71c-68.71-6.14-104.43,15.09-119.6,28.28a8.3638,8.3638,0,0,1-.66.52v-16.3A4.9954,4.9954,0,0,0,241.6351,268.68ZM369.295,83.5a231.8943,231.8943,0,0,0-40.48-3.2V75.45a11.7577,11.7577,0,0,0-11.74-11.74h-20.95a31.2657,31.2657,0,0,0-31.23,31.23v1.39a68.0819,68.0819,0,0,0-16.44,14.75,8.6978,8.6978,0,0,1-6.79,3.32h-.06a8.6785,8.6785,0,0,1-6.78-3.32c-13.52-16.93-35.3-27-64.74-29.93-23.15-2.3-45.09.49-56.11,2.35a12.6282,12.6282,0,0,0-8.42,5.43v-36.18h272.08V88.8a11.97,11.97,0,0,0-.74-.98A12.7147,12.7147,0,0,0,369.295,83.5Zm-258.21-65.33h261.02a5.5417,5.5417,0,0,1,5.53,5.53V42.7505H105.555V23.7A5.5353,5.5353,0,0,1,111.0851,18.17Zm-19.71,266.22a8.252,8.252,0,0,1-2.64-6.09V119.53a8.35,8.35,0,0,1,6.82-8.19,3.5479,3.5479,0,0,1,.47-.08c2.19-.28,4.66-.58,7.37-.86V258.47a12.7252,12.7252,0,0,0,13.87,12.67c65.03-5.8,98.18,13.71,112.16,25.87a18.7025,18.7025,0,0,0,24.43,0c13.97-12.16,47.13-31.67,112.15-25.87a12.7282,12.7282,0,0,0,13.88-12.67V110.4c2.71.28,5.18.58,7.37.86a2.535,2.535,0,0,1,.38.07,8.3373,8.3373,0,0,1,6.9,8.2V278.3a8.3236,8.3236,0,0,1-6.9,8.21,8.016,8.016,0,0,1-1.96.11q-4.095-.27-8.04-.43c-63.85-2.68-100.63,13.86-120.42,28.55a25.9652,25.9652,0,0,1-31.15,0c-18.36-13.63-51.3-28.84-106.91-28.84-4.39,0-8.92.09-13.6.3q-3.915.15-7.95.42a8.3192,8.3192,0,0,1-6.23-2.23Zm281.46,87.24a18.7661,18.7661,0,0,0-22.71-3.89V329.98a18.1551,18.1551,0,0,0-36.31,0v24.6309c-.1206-.0087-.2358-.0361-.3586-.0361H289.0916a5,5,0,0,0,0,10h24.3648c.1228,0,.238-.0274.3586-.0362V388.63h-202.73a5.5353,5.5353,0,0,1-5.53-5.53V364.5748H262.9789a5,5,0,0,0,0-10H105.555V296.21c61.24-2.69,96,12.79,114.55,26.56a35.9249,35.9249,0,0,0,43.07,0c18.54-13.76,53.26-29.23,114.46-26.57v71.66A19.1,19.1,0,0,0,372.8351,371.63Z"/></g></svg>